<svg xmlns="http://www.w3.org/2000/svg" xmlns:xlink="http://www.w3.org/1999/xlink" width="2000" zoomAndPan="magnify" viewBox="0 0 1500 1499.999933" height="2000" preserveAspectRatio="xMidYMid meet" version="1.0"><defs><g/><clipPath id="b178fa5de3"><path d="M 566.796875 454.105469 L 933.546875 454.105469 L 933.546875 820.105469 L 566.796875 820.105469 Z M 566.796875 454.105469 " clip-rule="nonzero"/></clipPath></defs><g clip-path="url(#b178fa5de3)"><path fill="#ffffff" d="M 750.238281 637.078125 L 750.238281 762.84375 C 750.070312 762.84375 749.90625 762.851562 749.738281 762.851562 C 680.386719 762.851562 623.964844 706.429688 623.964844 637.078125 C 623.964844 567.726562 680.386719 511.304688 749.738281 511.304688 C 819.089844 511.304688 875.507812 567.726562 875.507812 637.078125 C 875.507812 659.609375 869.542969 680.773438 859.121094 699.082031 L 900.609375 740.570312 C 907.554688 730.472656 913.46875 719.691406 918.289062 708.296875 C 927.835938 685.722656 932.679688 661.761719 932.679688 637.078125 C 932.679688 612.394531 927.835938 588.433594 918.289062 565.859375 C 909.074219 544.074219 895.890625 524.511719 879.097656 507.71875 C 862.304688 490.925781 842.742188 477.742188 820.957031 468.527344 C 798.382812 458.976562 774.421875 454.136719 749.738281 454.136719 C 725.054688 454.136719 701.09375 458.976562 678.519531 468.527344 C 656.734375 477.742188 637.171875 490.925781 620.378906 507.71875 C 603.585938 524.511719 590.402344 544.074219 581.183594 565.859375 C 571.636719 588.433594 566.796875 612.394531 566.796875 637.078125 C 566.796875 661.761719 571.636719 685.722656 581.183594 708.296875 C 590.402344 730.082031 603.585938 749.644531 620.378906 766.4375 C 637.171875 783.230469 656.734375 796.414062 678.519531 805.628906 C 701.09375 815.179688 725.054688 820.019531 749.738281 820.019531 C 769.539062 820.019531 788.878906 816.894531 807.40625 810.734375 L 807.40625 775.097656 L 852.328125 820.019531 L 933.179688 820.019531 L 750.238281 637.078125 " fill-opacity="1" fill-rule="nonzero"/></g><g fill="#0cc0df" fill-opacity="1"><g transform="translate(440.042631, 962.391161)"><g><path d="M 80.890625 -38.859375 C 80.890625 -33.484375 80.316406 -28.503906 79.171875 -23.921875 C 78.023438 -19.347656 76.222656 -15.320312 73.765625 -11.84375 C 71.304688 -8.363281 68.097656 -5.53125 64.140625 -3.34375 L 83.0625 18.453125 L 56.984375 18.453125 L 43.9375 1.0625 C 43.90625 1.0625 43.789062 1.0625 43.59375 1.0625 C 43.40625 1.0625 43.273438 1.0625 43.203125 1.0625 C 36.703125 1.0625 31.070312 0.117188 26.3125 -1.765625 C 21.5625 -3.660156 17.648438 -6.363281 14.578125 -9.875 C 11.503906 -13.394531 9.222656 -17.609375 7.734375 -22.515625 C 6.253906 -27.429688 5.515625 -32.914062 5.515625 -38.96875 C 5.515625 -47.019531 6.847656 -54.019531 9.515625 -59.96875 C 12.179688 -65.925781 16.304688 -70.539062 21.890625 -73.8125 C 27.472656 -77.082031 34.613281 -78.71875 43.3125 -78.71875 C 52.144531 -78.71875 59.328125 -77.070312 64.859375 -73.78125 C 70.390625 -70.5 74.441406 -65.867188 77.015625 -59.890625 C 79.597656 -53.921875 80.890625 -46.910156 80.890625 -38.859375 Z M 27.5625 -38.859375 C 27.5625 -34.191406 28.09375 -30.175781 29.15625 -26.8125 C 30.21875 -23.457031 31.894531 -20.878906 34.1875 -19.078125 C 36.488281 -17.273438 39.492188 -16.375 43.203125 -16.375 C 47.054688 -16.375 50.117188 -17.273438 52.390625 -19.078125 C 54.671875 -20.878906 56.316406 -23.457031 57.328125 -26.8125 C 58.335938 -30.175781 58.84375 -34.191406 58.84375 -38.859375 C 58.84375 -45.847656 57.675781 -51.375 55.34375 -55.4375 C 53.007812 -59.507812 49 -61.546875 43.3125 -61.546875 C 39.53125 -61.546875 36.476562 -60.625 34.15625 -58.78125 C 31.84375 -56.945312 30.164062 -54.332031 29.125 -50.9375 C 28.082031 -47.550781 27.5625 -43.523438 27.5625 -38.859375 Z M 27.5625 -38.859375 "/></g></g></g><g fill="#0cc0df" fill-opacity="1"><g transform="translate(526.544028, 962.391161)"><g><path d="M 74.265625 -77.5 L 74.265625 -30.84375 C 74.265625 -24.34375 73.023438 -18.695312 70.546875 -13.90625 C 68.078125 -9.125 64.367188 -5.429688 59.421875 -2.828125 C 54.472656 -0.234375 48.269531 1.0625 40.8125 1.0625 C 30.144531 1.0625 22 -1.675781 16.375 -7.15625 C 10.757812 -12.632812 7.953125 -20.375 7.953125 -30.375 L 7.953125 -77.5 L 29 -77.5 L 29 -32.015625 C 29 -26.535156 30.019531 -22.554688 32.0625 -20.078125 C 34.113281 -17.609375 37.140625 -16.375 41.140625 -16.375 C 43.992188 -16.375 46.320312 -16.910156 48.125 -17.984375 C 49.925781 -19.066406 51.242188 -20.773438 52.078125 -23.109375 C 52.910156 -25.441406 53.328125 -28.445312 53.328125 -32.125 L 53.328125 -77.5 Z M 74.265625 -77.5 "/></g></g></g><g fill="#0cc0df" fill-opacity="1"><g transform="translate(608.699152, 962.391161)"><g><path d="M 55.921875 0 L 52.109375 -14.53125 L 26.921875 -14.53125 L 23 0 L 0 0 L 25.28125 -77.8125 L 53.21875 -77.8125 L 78.828125 0 Z M 47.765625 -31.703125 L 44.421875 -44.421875 C 44.066406 -45.796875 43.550781 -47.765625 42.875 -50.328125 C 42.207031 -52.890625 41.546875 -55.539062 40.890625 -58.28125 C 40.242188 -61.019531 39.742188 -63.273438 39.390625 -65.046875 C 39.066406 -63.273438 38.613281 -61.085938 38.03125 -58.484375 C 37.445312 -55.890625 36.84375 -53.320312 36.21875 -50.78125 C 35.601562 -48.238281 35.066406 -46.117188 34.609375 -44.421875 L 31.28125 -31.703125 Z M 47.765625 -31.703125 "/></g></g></g><g fill="#0cc0df" fill-opacity="1"><g transform="translate(687.515075, 962.391161)"><g><path d="M 8.375 0 L 8.375 -77.5 L 29.3125 -77.5 L 29.3125 -16.90625 L 59.15625 -16.90625 L 59.15625 0 Z M 8.375 0 "/></g></g></g><g fill="#ffbd59" fill-opacity="1"><g transform="translate(750.706667, 962.391161)"><g><path d="M 54.390625 0 L 8.375 0 L 8.375 -77.5 L 54.390625 -77.5 L 54.390625 -60.703125 L 29.3125 -60.703125 L 29.3125 -48.5 L 52.53125 -48.5 L 52.53125 -31.703125 L 29.3125 -31.703125 L 29.3125 -17.0625 L 54.390625 -17.0625 Z M 54.390625 0 "/></g></g></g><g fill="#ffbd59" fill-opacity="1"><g transform="translate(810.282384, 962.391161)"><g><path d="M 80.890625 -38.859375 C 80.890625 -33.484375 80.316406 -28.503906 79.171875 -23.921875 C 78.023438 -19.347656 76.222656 -15.320312 73.765625 -11.84375 C 71.304688 -8.363281 68.097656 -5.53125 64.140625 -3.34375 L 83.0625 18.453125 L 56.984375 18.453125 L 43.9375 1.0625 C 43.90625 1.0625 43.789062 1.0625 43.59375 1.0625 C 43.40625 1.0625 43.273438 1.0625 43.203125 1.0625 C 36.703125 1.0625 31.070312 0.117188 26.3125 -1.765625 C 21.5625 -3.660156 17.648438 -6.363281 14.578125 -9.875 C 11.503906 -13.394531 9.222656 -17.609375 7.734375 -22.515625 C 6.253906 -27.429688 5.515625 -32.914062 5.515625 -38.96875 C 5.515625 -47.019531 6.847656 -54.019531 9.515625 -59.96875 C 12.179688 -65.925781 16.304688 -70.539062 21.890625 -73.8125 C 27.472656 -77.082031 34.613281 -78.71875 43.3125 -78.71875 C 52.144531 -78.71875 59.328125 -77.070312 64.859375 -73.78125 C 70.390625 -70.5 74.441406 -65.867188 77.015625 -59.890625 C 79.597656 -53.921875 80.890625 -46.910156 80.890625 -38.859375 Z M 27.5625 -38.859375 C 27.5625 -34.191406 28.09375 -30.175781 29.15625 -26.8125 C 30.21875 -23.457031 31.894531 -20.878906 34.1875 -19.078125 C 36.488281 -17.273438 39.492188 -16.375 43.203125 -16.375 C 47.054688 -16.375 50.117188 -17.273438 52.390625 -19.078125 C 54.671875 -20.878906 56.316406 -23.457031 57.328125 -26.8125 C 58.335938 -30.175781 58.84375 -34.191406 58.84375 -38.859375 C 58.84375 -45.847656 57.675781 -51.375 55.34375 -55.4375 C 53.007812 -59.507812 49 -61.546875 43.3125 -61.546875 C 39.53125 -61.546875 36.476562 -60.625 34.15625 -58.78125 C 31.84375 -56.945312 30.164062 -54.332031 29.125 -50.9375 C 28.082031 -47.550781 27.5625 -43.523438 27.5625 -38.859375 Z M 27.5625 -38.859375 "/></g></g></g><g fill="#ffbd59" fill-opacity="1"><g transform="translate(896.78378, 962.391161)"><g><path d="M 74.265625 -77.5 L 74.265625 -30.84375 C 74.265625 -24.34375 73.023438 -18.695312 70.546875 -13.90625 C 68.078125 -9.125 64.367188 -5.429688 59.421875 -2.828125 C 54.472656 -0.234375 48.269531 1.0625 40.8125 1.0625 C 30.144531 1.0625 22 -1.675781 16.375 -7.15625 C 10.757812 -12.632812 7.953125 -20.375 7.953125 -30.375 L 7.953125 -77.5 L 29 -77.5 L 29 -32.015625 C 29 -26.535156 30.019531 -22.554688 32.0625 -20.078125 C 34.113281 -17.609375 37.140625 -16.375 41.140625 -16.375 C 43.992188 -16.375 46.320312 -16.910156 48.125 -17.984375 C 49.925781 -19.066406 51.242188 -20.773438 52.078125 -23.109375 C 52.910156 -25.441406 53.328125 -28.445312 53.328125 -32.125 L 53.328125 -77.5 Z M 74.265625 -77.5 "/></g></g></g><g fill="#ffbd59" fill-opacity="1"><g transform="translate(978.938917, 962.391161)"><g><path d="M 8.375 0 L 8.375 -77.5 L 29.421875 -77.5 L 29.421875 0 Z M 8.375 0 "/></g></g></g><g fill="#ffbd59" fill-opacity="1"><g transform="translate(1016.730281, 962.391161)"><g><path d="M 35.203125 -77.5 C 45.023438 -77.5 52.382812 -75.359375 57.28125 -71.078125 C 62.175781 -66.804688 64.625 -60.726562 64.625 -52.84375 C 64.625 -49.3125 64.117188 -45.921875 63.109375 -42.671875 C 62.097656 -39.421875 60.453125 -36.519531 58.171875 -33.96875 C 55.898438 -31.425781 52.878906 -29.410156 49.109375 -27.921875 C 45.347656 -26.441406 40.710938 -25.703125 35.203125 -25.703125 L 29.3125 -25.703125 L 29.3125 0 L 8.375 0 L 8.375 -77.5 Z M 34.71875 -60.59375 L 29.3125 -60.59375 L 29.3125 -42.78125 L 33.453125 -42.78125 C 35.253906 -42.78125 36.929688 -43.085938 38.484375 -43.703125 C 40.035156 -44.328125 41.28125 -45.335938 42.21875 -46.734375 C 43.15625 -48.128906 43.625 -49.988281 43.625 -52.3125 C 43.625 -54.757812 42.898438 -56.75 41.453125 -58.28125 C 40.003906 -59.820312 37.757812 -60.59375 34.71875 -60.59375 Z M 34.71875 -60.59375 "/></g></g></g><g fill="#ffbd59" fill-opacity="1"><g transform="translate(1085.316548, 962.391161)"><g><path d="M 59.046875 -23.53125 C 59.046875 -19.332031 57.984375 -15.347656 55.859375 -11.578125 C 53.742188 -7.816406 50.453125 -4.769531 45.984375 -2.4375 C 41.515625 -0.101562 35.742188 1.0625 28.671875 1.0625 C 25.140625 1.0625 22.039062 0.898438 19.375 0.578125 C 16.707031 0.265625 14.222656 -0.25 11.921875 -0.96875 C 9.628906 -1.695312 7.242188 -2.644531 4.765625 -3.8125 L 4.765625 -22.46875 C 8.972656 -20.351562 13.210938 -18.738281 17.484375 -17.625 C 21.765625 -16.507812 25.640625 -15.953125 29.109375 -15.953125 C 31.191406 -15.953125 32.894531 -16.195312 34.21875 -16.6875 C 35.539062 -17.1875 36.519531 -17.867188 37.15625 -18.734375 C 37.789062 -19.597656 38.109375 -20.597656 38.109375 -21.734375 C 38.109375 -23.078125 37.640625 -24.21875 36.703125 -25.15625 C 35.765625 -26.09375 34.269531 -27.070312 32.21875 -28.09375 C 30.175781 -29.113281 27.476562 -30.382812 24.125 -31.90625 C 21.257812 -33.25 18.664062 -34.628906 16.34375 -36.046875 C 14.03125 -37.460938 12.050781 -39.078125 10.40625 -40.890625 C 8.769531 -42.710938 7.507812 -44.84375 6.625 -47.28125 C 5.738281 -49.71875 5.296875 -52.597656 5.296875 -55.921875 C 5.296875 -60.910156 6.523438 -65.09375 8.984375 -68.46875 C 11.441406 -71.84375 14.867188 -74.375 19.265625 -76.0625 C 23.671875 -77.757812 28.753906 -78.609375 34.515625 -78.609375 C 39.566406 -78.609375 44.113281 -78.039062 48.15625 -76.90625 C 52.207031 -75.78125 55.835938 -74.492188 59.046875 -73.046875 L 52.640625 -56.875 C 49.316406 -58.394531 46.046875 -59.601562 42.828125 -60.5 C 39.609375 -61.40625 36.625 -61.859375 33.875 -61.859375 C 32.070312 -61.859375 30.59375 -61.632812 29.4375 -61.1875 C 28.289062 -60.75 27.441406 -60.160156 26.890625 -59.421875 C 26.347656 -58.679688 26.078125 -57.832031 26.078125 -56.875 C 26.078125 -55.675781 26.546875 -54.597656 27.484375 -53.640625 C 28.421875 -52.691406 29.992188 -51.660156 32.203125 -50.546875 C 34.410156 -49.429688 37.421875 -47.988281 41.234375 -46.21875 C 45.015625 -44.519531 48.226562 -42.691406 50.875 -40.734375 C 53.53125 -38.773438 55.554688 -36.425781 56.953125 -33.6875 C 58.347656 -30.945312 59.046875 -27.5625 59.046875 -23.53125 Z M 59.046875 -23.53125 "/></g></g></g></svg>